<svg width="134" height="40" viewBox="0 0 134 40" fill="none" xmlns="http://www.w3.org/2000/svg">
<path d="M129.037 39.5H4.96296C2.4698 39.5 0.5 37.4339 0.5 35V5C0.5 2.47914 2.5561 0.5 4.96296 0.5H129.037C131.53 0.5 133.5 2.56608 133.5 5V35C133.5 37.5274 131.537 39.5 129.037 39.5Z" fill="black" stroke="#636E72"/>
<path d="M30.5754 19.9C30.5754 17.1 32.8584 15.8 32.9577 15.7C31.6673 13.8 29.6821 13.6 28.9873 13.5C27.2999 13.3 25.7117 14.5 24.8184 14.5C23.9251 14.5 22.6347 13.5 21.2451 13.5C19.4584 13.5 17.771 14.6 16.7784 16.2C14.8925 19.5 16.2821 24.5 18.168 27.2C19.0614 28.5 20.1532 30 21.5428 30C22.9325 29.9 23.4288 29.1 25.1162 29.1C26.8036 29.1 27.2006 30 28.6895 30C30.1784 30 31.0717 28.7 31.9651 27.3C33.0569 25.8 33.454 24.3 33.454 24.2C33.454 24.3 30.5754 23.2 30.5754 19.9Z" fill="white"/>
<path d="M27.7961 11.7998C28.4909 10.8998 29.0864 9.5998 28.8879 8.2998C27.7961 8.2998 26.5057 8.9998 25.7116 9.9998C25.0168 10.7998 24.4212 12.0998 24.6198 13.3998C25.8109 13.3998 27.1012 12.6998 27.7961 11.7998Z" fill="white"/>
<path d="M47.9458 26.7002H43.2806L42.1888 30.1002H40.2036L44.6703 17.7002H46.6555L51.1221 30.1002H49.1369L47.9458 26.7002ZM43.7769 25.2002H47.5488L45.6629 19.7002H45.5636L43.7769 25.2002Z" fill="white"/>
<path d="M60.7505 25.5999C60.7505 28.3999 59.2616 30.1999 56.9787 30.1999C55.6883 30.1999 54.6957 29.5999 54.1994 28.5999V33.0999H52.3135V21.0999H54.1001V22.5999C54.5964 21.5999 55.6883 20.9999 56.9787 20.9999C59.1624 20.8999 60.7505 22.7999 60.7505 25.5999ZM58.7653 25.5999C58.7653 23.7999 57.872 22.5999 56.3831 22.5999C54.9935 22.5999 54.0009 23.7999 54.0009 25.5999C54.0009 27.3999 54.9935 28.5999 56.3831 28.5999C57.872 28.5999 58.7653 27.3999 58.7653 25.5999Z" fill="white"/>
<path d="M70.5772 25.5999C70.5772 28.3999 69.0883 30.1999 66.8053 30.1999C65.515 30.1999 64.5224 29.5999 64.0261 28.5999V33.0999H62.1401V21.0999H63.9268V22.5999C64.4231 21.5999 65.515 20.9999 66.8053 20.9999C69.0883 20.8999 70.5772 22.7999 70.5772 25.5999ZM68.6913 25.5999C68.6913 23.7999 67.7979 22.5999 66.309 22.5999C64.9194 22.5999 63.9268 23.7999 63.9268 25.5999C63.9268 27.3999 64.9194 28.5999 66.309 28.5999C67.7979 28.5999 68.6913 27.3999 68.6913 25.5999Z" fill="white"/>
<path d="M77.1278 26.6C77.2271 27.8 78.4182 28.6 80.1056 28.6C81.6938 28.6 82.7856 27.8 82.7856 26.7C82.7856 25.7 82.0908 25.2 80.5026 24.8L78.9145 24.4C76.6315 23.8 75.6389 22.8 75.6389 21.1C75.6389 19 77.5249 17.5 80.1056 17.5C82.6864 17.5 84.473 19 84.5723 21.1H82.6864C82.5871 19.9 81.5945 19.1 80.1056 19.1C78.6167 19.1 77.6241 19.9 77.6241 21C77.6241 21.9 78.3189 22.4 79.9071 22.8L81.2967 23.1C83.7782 23.7 84.8701 24.7 84.8701 26.5C84.8701 28.8 82.9841 30.3 80.1056 30.3C77.3264 30.3 75.5397 28.9 75.4404 26.6H77.1278Z" fill="white"/>
<path d="M88.642 18.9004V21.0004H90.3294V22.5004H88.642V27.5004C88.642 28.3004 88.9398 28.6004 89.7338 28.6004C89.9324 28.6004 90.2301 28.6004 90.3294 28.6004V30.1004C90.1309 30.2004 89.7338 30.2004 89.3368 30.2004C87.5501 30.2004 86.8553 29.5004 86.8553 27.8004V22.6004H85.5649V21.1004H86.8553V19.0004H88.642V18.9004Z" fill="white"/>
<path d="M91.4214 25.6C91.4214 22.8 93.1088 21 95.6895 21C98.2703 21 99.9577 22.8 99.9577 25.6C99.9577 28.5 98.2703 30.2 95.6895 30.2C93.0095 30.2 91.4214 28.4 91.4214 25.6ZM98.0718 25.6C98.0718 23.6 97.1784 22.5 95.6895 22.5C94.2007 22.5 93.3073 23.6 93.3073 25.6C93.3073 27.6 94.2007 28.7 95.6895 28.7C97.1784 28.7 98.0718 27.5 98.0718 25.6Z" fill="white"/>
<path d="M101.447 21H103.233V22.6C103.531 21.6 104.325 21 105.417 21C105.715 21 105.913 21 106.013 21.1V22.8C105.913 22.7 105.516 22.7 105.219 22.7C104.028 22.7 103.333 23.5 103.333 24.8V30.2H101.447V21Z" fill="white"/>
<path d="M114.549 27.4004C114.251 29.0004 112.663 30.2004 110.678 30.2004C108.097 30.2004 106.41 28.4004 106.41 25.6004C106.41 22.8004 107.998 20.9004 110.579 20.9004C113.06 20.9004 114.648 22.6004 114.648 25.4004V26.0004H108.296V26.1004C108.296 27.6004 109.288 28.7004 110.678 28.7004C111.67 28.7004 112.464 28.2004 112.762 27.4004H114.549ZM108.296 24.7004H112.762C112.762 23.3004 111.869 22.4004 110.579 22.4004C109.288 22.4004 108.395 23.4004 108.296 24.7004Z" fill="white"/>
<path d="M43.4796 8.2998C45.2663 8.2998 46.2589 9.3998 46.2589 11.2998C46.2589 13.1998 45.2663 14.2998 43.4796 14.2998H41.2959V8.2998H43.4796ZM42.2885 13.4998H43.3803C44.5715 13.4998 45.3655 12.6998 45.3655 11.3998C45.3655 10.0998 44.6707 9.2998 43.3803 9.2998H42.2885V13.4998Z" fill="white"/>
<path d="M47.3506 12.0002C47.3506 10.5002 48.1447 9.7002 49.435 9.7002C50.7254 9.7002 51.5195 10.6002 51.5195 12.0002C51.5195 13.5002 50.7254 14.3002 49.435 14.3002C48.1447 14.4002 47.3506 13.5002 47.3506 12.0002ZM50.6261 12.0002C50.6261 11.0002 50.2291 10.5002 49.435 10.5002C48.641 10.5002 48.2439 11.1002 48.2439 12.0002C48.2439 13.0002 48.641 13.6002 49.435 13.6002C50.2291 13.6002 50.6261 13.0002 50.6261 12.0002Z" fill="white"/>
<path d="M57.1772 14.2998H56.2838L55.3905 10.9998H55.2913L54.3979 14.2998H53.5046L52.3135 9.7998H53.2068L54.0009 13.1998H54.1001L54.9935 9.7998H55.8868L56.7801 13.1998H56.8794L57.6735 9.7998H58.5668L57.1772 14.2998Z" fill="white"/>
<path d="M59.4604 9.80019H60.3538V10.5002H60.453C60.6516 10.0002 61.1479 9.7002 61.7434 9.7002C62.736 9.7002 63.3316 10.3002 63.3316 11.4002V14.3002H62.4382V11.6002C62.4382 10.9002 62.1404 10.5002 61.4456 10.5002C60.7508 10.5002 60.3538 10.9002 60.3538 11.6002V14.2002H59.4604V9.80019Z" fill="white"/>
<path d="M64.6216 8H65.5149V14.3H64.6216V8Z" fill="white"/>
<path d="M66.7061 12.0002C66.7061 10.5002 67.5001 9.7002 68.7905 9.7002C70.0809 9.7002 70.8749 10.6002 70.8749 12.0002C70.8749 13.5002 70.0809 14.3002 68.7905 14.3002C67.5001 14.4002 66.7061 13.5002 66.7061 12.0002ZM70.0809 12.0002C70.0809 11.0002 69.6838 10.5002 68.8898 10.5002C68.0957 10.5002 67.6986 11.1002 67.6986 12.0002C67.6986 13.0002 68.0957 13.6002 68.8898 13.6002C69.5846 13.6002 70.0809 13.0002 70.0809 12.0002Z" fill="white"/>
<path d="M71.8677 13.0002C71.8677 12.2002 72.4632 11.7002 73.5551 11.7002L74.7462 11.6002V11.2002C74.7462 10.7002 74.4484 10.5002 73.8529 10.5002C73.3566 10.5002 73.0588 10.7002 72.9595 11.0002H72.0662C72.1655 10.2002 72.8603 9.7002 73.8529 9.7002C74.9447 9.7002 75.6395 10.3002 75.6395 11.2002V14.3002H74.7462V13.7002H74.6469C74.3491 14.2002 73.8529 14.4002 73.2573 14.4002C72.4632 14.4002 71.8677 13.8002 71.8677 13.0002ZM74.7462 12.6002V12.2002L73.6543 12.3002C73.0588 12.3002 72.761 12.6002 72.761 12.9002C72.761 13.3002 73.158 13.5002 73.5551 13.5002C74.2499 13.6002 74.7462 13.2002 74.7462 12.6002Z" fill="white"/>
<path d="M76.7314 12C76.7314 10.6 77.4263 9.7 78.6174 9.7C79.2129 9.7 79.7092 10 80.007 10.5H80.1063V8H80.9996V14.3H80.1063V13.6H80.007C79.7092 14.1 79.2129 14.4 78.6174 14.4C77.5255 14.4 76.7314 13.5 76.7314 12ZM77.724 12C77.724 13 78.2203 13.5 78.9151 13.5C79.61 13.5 80.1063 12.9 80.1063 12C80.1063 11.1 79.61 10.5 78.9151 10.5C78.1211 10.5 77.724 11.1 77.724 12Z" fill="white"/>
<path d="M84.5728 12.0002C84.5728 10.5002 85.3668 9.7002 86.6572 9.7002C87.9476 9.7002 88.7417 10.6002 88.7417 12.0002C88.7417 13.5002 87.9476 14.3002 86.6572 14.3002C85.3668 14.4002 84.5728 13.5002 84.5728 12.0002ZM87.9476 12.0002C87.9476 11.0002 87.5505 10.5002 86.7565 10.5002C85.9624 10.5002 85.5653 11.1002 85.5653 12.0002C85.5653 13.0002 85.9624 13.6002 86.7565 13.6002C87.4513 13.6002 87.9476 13.0002 87.9476 12.0002Z" fill="white"/>
<path d="M90.0322 9.80019H90.9256V10.5002H91.0248C91.2233 10.0002 91.7196 9.7002 92.3152 9.7002C93.3078 9.7002 93.9033 10.3002 93.9033 11.4002V14.3002H93.01V11.6002C93.01 10.9002 92.7122 10.5002 92.0174 10.5002C91.3226 10.5002 90.9256 10.9002 90.9256 11.6002V14.2002H90.0322V9.80019Z" fill="white"/>
<path d="M98.767 8.7002V9.80019H99.7596V10.6002H98.767V12.9002C98.767 13.4002 98.9655 13.6002 99.3625 13.6002C99.4618 13.6002 99.5611 13.6002 99.6603 13.6002V14.3002C99.5611 14.3002 99.3625 14.3002 99.164 14.3002C98.1714 14.3002 97.7744 14.0002 97.7744 13.1002V10.6002H97.0796V9.9002H97.7744V8.7002H98.767Z" fill="white"/>
<path d="M100.951 8H101.844V10.5H101.943C102.142 10 102.638 9.7 103.333 9.7C104.325 9.7 104.921 10.3 104.921 11.4V14.3H104.028V11.6C104.028 10.9 103.73 10.5 103.035 10.5C102.34 10.5 101.943 11 101.943 11.6V14.2H101.05V8H100.951Z" fill="white"/>
<path d="M109.983 13.1002C109.785 13.9002 109.09 14.4002 107.998 14.4002C106.708 14.4002 105.914 13.5002 105.914 12.1002C105.914 10.7002 106.708 9.7002 107.998 9.7002C109.288 9.7002 109.983 10.6002 109.983 12.0002V12.3002H106.807C106.807 13.1002 107.303 13.6002 107.998 13.6002C108.494 13.6002 108.891 13.4002 109.09 13.1002H109.983ZM106.807 11.6002H109.09C109.09 10.9002 108.594 10.4002 107.998 10.4002C107.303 10.5002 106.906 10.9002 106.807 11.6002Z" fill="white"/>
</svg>
