<svg width="134" height="40" viewBox="0 0 134 40" fill="none" xmlns="http://www.w3.org/2000/svg">
<path d="M129.037 39.5H4.96296C2.4698 39.5 0.5 37.4339 0.5 35V5C0.5 2.47914 2.5561 0.5 4.96296 0.5H129.037C131.53 0.5 133.5 2.56608 133.5 5V35C133.5 37.5274 131.537 39.5 129.037 39.5Z" fill="black" stroke="#636E72"/>
<path d="M47.0488 10.2004C47.0488 11.0004 46.8503 11.7004 46.354 12.2004C45.7584 12.8004 45.0636 13.1004 44.1703 13.1004C43.277 13.1004 42.5821 12.8004 41.9866 12.2004C41.391 11.6004 41.0933 10.9004 41.0933 10.0004C41.0933 9.10039 41.391 8.40039 41.9866 7.80039C42.5821 7.20039 43.277 6.90039 44.1703 6.90039C44.5673 6.90039 44.9644 7.00039 45.3614 7.20039C45.7584 7.40039 46.0562 7.60039 46.2547 7.90039L45.7584 8.40039C45.3614 7.90039 44.8651 7.70039 44.1703 7.70039C43.5747 7.70039 42.9792 7.90039 42.5821 8.40039C42.0859 8.80039 41.8873 9.40039 41.8873 10.1004C41.8873 10.8004 42.0859 11.4004 42.5821 11.8004C43.0784 12.2004 43.5747 12.5004 44.1703 12.5004C44.8651 12.5004 45.3614 12.3004 45.8577 11.8004C46.1555 11.5004 46.354 11.1004 46.354 10.6004H44.1703V9.80039H47.0488C47.0488 9.90039 47.0488 10.1004 47.0488 10.2004Z" fill="white" stroke="white" stroke-width="0.2" stroke-miterlimit="10"/>
<path d="M51.6147 7.7H48.9347V9.6H51.4162V10.3H48.9347V12.2H51.6147V13H48.1406V7H51.6147V7.7Z" fill="white" stroke="white" stroke-width="0.2" stroke-miterlimit="10"/>
<path d="M54.8902 13H54.0961V7.7H52.4087V7H56.5776V7.7H54.8902V13Z" fill="white" stroke="white" stroke-width="0.2" stroke-miterlimit="10"/>
<path d="M59.4561 13V7H60.2501V13H59.4561Z" fill="white" stroke="white" stroke-width="0.2" stroke-miterlimit="10"/>
<path d="M63.625 13H62.831V7.7H61.1436V7H65.2132V7.7H63.5258V13H63.625Z" fill="white" stroke="white" stroke-width="0.2" stroke-miterlimit="10"/>
<path d="M73.0547 12.2004C72.4591 12.8004 71.7643 13.1004 70.871 13.1004C69.9776 13.1004 69.2828 12.8004 68.6873 12.2004C68.0917 11.6004 67.7939 10.9004 67.7939 10.0004C67.7939 9.10039 68.0917 8.40039 68.6873 7.80039C69.2828 7.20039 69.9776 6.90039 70.871 6.90039C71.7643 6.90039 72.4591 7.20039 73.0547 7.80039C73.6502 8.40039 73.948 9.10039 73.948 10.0004C73.948 10.9004 73.6502 11.6004 73.0547 12.2004ZM69.2828 11.7004C69.6799 12.1004 70.2754 12.4004 70.871 12.4004C71.4665 12.4004 72.0621 12.2004 72.4591 11.7004C72.8562 11.3004 73.1539 10.7004 73.1539 10.0004C73.1539 9.30039 72.9554 8.70039 72.4591 8.30039C72.0621 7.90039 71.4665 7.60039 70.871 7.60039C70.2754 7.60039 69.6799 7.80039 69.2828 8.30039C68.8858 8.70039 68.588 9.30039 68.588 10.0004C68.588 10.7004 68.7865 11.3004 69.2828 11.7004Z" fill="white" stroke="white" stroke-width="0.2" stroke-miterlimit="10"/>
<path d="M75.04 13V7H75.9334L78.8119 11.7V10.5V7H79.606V13H78.8119L75.7349 8.1V9.3V13H75.04Z" fill="white" stroke="white" stroke-width="0.2" stroke-miterlimit="10"/>
<path d="M67.5954 21.7996C65.2132 21.7996 63.3273 23.5996 63.3273 26.0996C63.3273 28.4996 65.2132 30.3996 67.5954 30.3996C69.9776 30.3996 71.8636 28.5996 71.8636 26.0996C71.8636 23.4996 69.9776 21.7996 67.5954 21.7996ZM67.5954 28.5996C66.305 28.5996 65.2132 27.4996 65.2132 25.9996C65.2132 24.4996 66.305 23.3996 67.5954 23.3996C68.8858 23.3996 69.9776 24.3996 69.9776 25.9996C69.9776 27.4996 68.8858 28.5996 67.5954 28.5996ZM58.3643 21.7996C55.9821 21.7996 54.0962 23.5996 54.0962 26.0996C54.0962 28.4996 55.9821 30.3996 58.3643 30.3996C60.7465 30.3996 62.6325 28.5996 62.6325 26.0996C62.6325 23.4996 60.7465 21.7996 58.3643 21.7996ZM58.3643 28.5996C57.0739 28.5996 55.9821 27.4996 55.9821 25.9996C55.9821 24.4996 57.0739 23.3996 58.3643 23.3996C59.6547 23.3996 60.7465 24.3996 60.7465 25.9996C60.7465 27.4996 59.6547 28.5996 58.3643 28.5996ZM47.3465 23.0996V24.8996H51.6147C51.5154 25.8996 51.1184 26.6996 50.6221 27.1996C50.0265 27.7996 49.0339 28.4996 47.3465 28.4996C44.6665 28.4996 42.6813 26.3996 42.6813 23.6996C42.6813 20.9996 44.7658 18.8996 47.3465 18.8996C48.7362 18.8996 49.828 19.4996 50.6221 20.1996L51.9124 18.8996C50.8206 17.8996 49.431 17.0996 47.4458 17.0996C43.8724 17.0996 40.7954 20.0996 40.7954 23.6996C40.7954 27.2996 43.8724 30.2996 47.4458 30.2996C49.431 30.2996 50.8206 29.6996 52.0117 28.3996C53.2028 27.1996 53.5999 25.4996 53.5999 24.1996C53.5999 23.7996 53.5999 23.3996 53.5006 23.0996H47.3465ZM92.4102 24.4996C92.0132 23.4996 91.0206 21.7996 88.8369 21.7996C86.6532 21.7996 84.8665 23.4996 84.8665 26.0996C84.8665 28.4996 86.6532 30.3996 89.0354 30.3996C90.9213 30.3996 92.1125 29.1996 92.5095 28.4996L91.1199 27.4996C90.6236 28.1996 90.028 28.6996 89.0354 28.6996C88.0428 28.6996 87.4473 28.2996 86.951 27.3996L92.6088 24.9996L92.4102 24.4996ZM86.6532 25.8996C86.6532 24.2996 87.9436 23.3996 88.8369 23.3996C89.5317 23.3996 90.2265 23.7996 90.425 24.2996L86.6532 25.8996ZM81.988 29.9996H83.8739V17.4996H81.988V29.9996ZM79.0102 22.6996C78.5139 22.1996 77.7199 21.6996 76.7273 21.6996C74.6428 21.6996 72.6576 23.5996 72.6576 25.9996C72.6576 28.3996 74.5436 30.1996 76.7273 30.1996C77.7199 30.1996 78.5139 29.6996 78.911 29.1996H79.0102V29.7996C79.0102 31.3996 78.1169 32.2996 76.7273 32.2996C75.6354 32.2996 74.8413 31.4996 74.6428 30.7996L73.0547 31.4996C73.551 32.5996 74.7421 33.9996 76.8265 33.9996C79.0102 33.9996 80.7969 32.6996 80.7969 29.5996V21.9996H79.0102V22.6996ZM76.8265 28.5996C75.5362 28.5996 74.4443 27.4996 74.4443 25.9996C74.4443 24.4996 75.5362 23.3996 76.8265 23.3996C78.1169 23.3996 79.1095 24.4996 79.1095 25.9996C79.1095 27.4996 78.1169 28.5996 76.8265 28.5996ZM101.046 17.4996H96.5791V29.9996H98.465V25.2996H101.046C103.13 25.2996 105.115 23.7996 105.115 21.3996C105.115 18.9996 103.13 17.4996 101.046 17.4996ZM101.145 23.4996H98.465V19.1996H101.145C102.535 19.1996 103.329 20.3996 103.329 21.2996C103.229 22.3996 102.435 23.4996 101.145 23.4996ZM112.56 21.6996C111.17 21.6996 109.781 22.2996 109.284 23.5996L110.972 24.2996C111.369 23.5996 111.964 23.3996 112.659 23.3996C113.652 23.3996 114.545 23.9996 114.644 24.9996V25.0996C114.347 24.8996 113.552 24.5996 112.758 24.5996C110.972 24.5996 109.185 25.5996 109.185 27.3996C109.185 29.0996 110.674 30.1996 112.262 30.1996C113.552 30.1996 114.148 29.5996 114.644 28.9996H114.744V29.9996H116.53V25.1996C116.332 22.9996 114.644 21.6996 112.56 21.6996ZM112.361 28.5996C111.766 28.5996 110.872 28.2996 110.872 27.4996C110.872 26.4996 111.964 26.1996 112.858 26.1996C113.652 26.1996 114.049 26.3996 114.545 26.5996C114.347 27.7996 113.354 28.5996 112.361 28.5996ZM122.784 21.9996L120.699 27.3996H120.6L118.416 21.9996H116.431L119.707 29.5996L117.821 33.7996H119.707L124.769 21.9996H122.784ZM106.108 29.9996H107.994V17.4996H106.108V29.9996Z" fill="white"/>
<path d="M10.3228 7.5C10.025 7.8 9.92578 8.3 9.92578 8.9V31C9.92578 31.6 10.1243 32.1 10.4221 32.4L10.5213 32.5L22.8295 20.1V20V19.9L10.3228 7.5Z" fill="url(#paint0_linear)"/>
<path d="M26.7996 24.3008L22.73 20.2008V20.0008V19.9008L26.7996 15.8008L26.8989 15.9008L31.7626 18.7008C33.1522 19.5008 33.1522 20.8008 31.7626 21.6008L26.7996 24.3008Z" fill="url(#paint1_linear)"/>
<path d="M26.899 24.2L22.7302 20L10.3228 32.5C10.8191 33 11.5139 33 12.4072 32.6L26.899 24.2Z" fill="url(#paint2_linear)"/>
<path d="M26.899 15.8006L12.4072 7.5006C11.5139 7.0006 10.8191 7.1006 10.3228 7.6006L22.7302 20.0006L26.899 15.8006Z" fill="url(#paint3_linear)"/>
<path opacity="0.2" d="M26.7998 24.1006L12.4072 32.3006C11.6131 32.8006 10.9183 32.7006 10.422 32.3006L10.3228 32.4006L10.422 32.5006C10.9183 32.9006 11.6131 33.0006 12.4072 32.5006L26.7998 24.1006Z" fill="black"/>
<path opacity="0.12" d="M10.3228 32.3004C10.025 32.0004 9.92578 31.5004 9.92578 30.9004V31.0004C9.92578 31.6004 10.1243 32.1004 10.4221 32.4004V32.3004H10.3228Z" fill="black"/>
<path opacity="0.12" d="M31.7628 21.3L26.7998 24.1L26.8991 24.2L31.7628 21.4C32.4576 21 32.7554 20.5 32.7554 20C32.7554 20.5 32.3583 20.9 31.7628 21.3Z" fill="black"/>
<path opacity="0.25" d="M12.4073 7.60027L31.7628 18.7003C32.3584 19.1003 32.7554 19.5003 32.7554 20.0003C32.7554 19.5003 32.4576 19.0003 31.7628 18.6003L12.4073 7.50027C11.0176 6.70027 9.92578 7.30027 9.92578 8.90027V9.00027C9.92578 7.50027 11.0176 6.80027 12.4073 7.60027Z" fill="white"/>
<defs>
<linearGradient id="paint0_linear" x1="21.638" y1="8.7098" x2="4.85604" y2="25.3674" gradientUnits="userSpaceOnUse">
<stop stop-color="#00A0FF"/>
<stop offset="0.00657445" stop-color="#00A1FF"/>
<stop offset="0.2601" stop-color="#00BEFF"/>
<stop offset="0.5122" stop-color="#00D2FF"/>
<stop offset="0.7604" stop-color="#00DFFF"/>
<stop offset="1" stop-color="#00E3FF"/>
</linearGradient>
<linearGradient id="paint1_linear" x1="33.5833" y1="20.0024" x2="9.56562" y2="20.0024" gradientUnits="userSpaceOnUse">
<stop stop-color="#FFE000"/>
<stop offset="0.4087" stop-color="#FFBD00"/>
<stop offset="0.7754" stop-color="#FFA500"/>
<stop offset="1" stop-color="#FF9C00"/>
</linearGradient>
<linearGradient id="paint2_linear" x1="24.6428" y1="22.2962" x2="1.88512" y2="44.8853" gradientUnits="userSpaceOnUse">
<stop stop-color="#FF3A44"/>
<stop offset="1" stop-color="#C31162"/>
</linearGradient>
<linearGradient id="paint3_linear" x1="7.24294" y1="0.176899" x2="17.4053" y2="10.2638" gradientUnits="userSpaceOnUse">
<stop stop-color="#32A071"/>
<stop offset="0.0685" stop-color="#2DA771"/>
<stop offset="0.4762" stop-color="#15CF74"/>
<stop offset="0.8009" stop-color="#06E775"/>
<stop offset="1" stop-color="#00F076"/>
</linearGradient>
</defs>
</svg>
